<?xml version="1.0" standalone="no"?>
<!DOCTYPE svg PUBLIC "-//W3C//DTD SVG 20010904//EN"
 "http://www.w3.org/TR/2001/REC-SVG-20010904/DTD/svg10.dtd">
<svg version="1.0" xmlns="http://www.w3.org/2000/svg"
 width="1024.000000pt" height="1024.000000pt" viewBox="0 0 1024.000000 1024.000000"
 preserveAspectRatio="xMidYMid meet">

<g transform="translate(0.000000,1024.000000) scale(0.100000,-0.100000)"
fill="#000000" stroke="none">
<path d="M4034 8251 c-6 -6 6 -2685 12 -2691 6 -5 2864 -4 2867 2 1 1 1 607
-1 1346 l-3 1342 -792 1 c-436 1 -1081 2 -1435 3 -354 0 -645 -1 -648 -3z
m2605 -1340 l-1 -1079 -251 -7 c-334 -9 -2063 -2 -2074 8 -4 5 -9 492 -10
1083 l-2 1074 1169 0 1169 0 0 -1079z"/>
<path d="M4455 7838 c-9 -23 0 -1866 8 -1875 5 -4 140 -8 300 -8 261 0 297 2
342 19 72 27 245 28 274 2 15 -14 48 -21 118 -28 96 -10 134 -9 603 23 182 12
261 13 323 4 44 -7 45 -6 52 24 7 31 11 1840 4 1845 -2 1 -137 -1 -299 -6
-176 -5 -509 -4 -824 2 -720 14 -895 13 -901 -2z m1842 -171 c8 -9 7 -1496 -2
-1505 -3 -3 -60 -9 -127 -13 -68 -4 -152 -12 -188 -18 -86 -14 -924 -15 -1060
-2 -58 6 -113 10 -123 11 -10 0 -16 3 -14 8 3 4 -29 7 -71 7 l-77 0 -7 230
c-3 127 -5 325 -3 440 1 116 3 353 4 527 l1 318 283 2 c590 6 1376 3 1384 -5z"/>
<path d="M4780 6898 l0 -638 680 0 680 0 0 588 c0 323 -3 611 -7 640 l-6 53
-673 -2 -674 -3 0 -638z m1065 2 l1 -390 -366 0 c-201 0 -375 -3 -387 -6 l-23
-6 0 396 0 396 388 0 387 0 0 -390z"/>
<path d="M5370 7073 c-146 -77 -154 -264 -17 -364 39 -28 47 -30 109 -27 57 3
73 8 105 34 46 38 92 108 99 155 18 106 -77 213 -201 226 -31 4 -53 -2 -95
-24z"/>
<path d="M7223 6951 c-137 -86 -97 -291 57 -291 25 0 64 9 88 20 46 21 62 48
62 106 l0 34 139 0 c88 0 142 4 146 11 4 6 9 37 12 70 l6 60 -179 -1 c-98 -1
-206 1 -239 5 -50 5 -65 3 -92 -14z"/>
<path d="M7510 6664 c52 -20 102 -43 111 -50 8 -8 27 -14 41 -14 21 0 27 6 30
30 3 17 -1 35 -7 40 -6 5 -45 12 -86 14 -41 3 -99 8 -129 11 l-55 6 95 -37z"/>
<path d="M7269 5923 c-110 -93 -58 -273 79 -273 52 0 90 20 120 65 34 49 37
92 10 145 -46 89 -143 118 -209 63z"/>
<path d="M5117 5050 c-3 -41 -6 -228 -7 -414 l0 -339 212 6 c281 7 321 19 441
129 26 24 47 47 47 51 0 3 13 35 29 69 33 75 43 153 30 245 -14 102 -85 207
-173 258 -81 47 -138 57 -362 64 l-212 6 -5 -75z m412 -101 c63 -13 107 -43
144 -96 63 -89 42 -250 -43 -327 -51 -46 -92 -56 -238 -56 l-124 0 4 245 3
245 102 0 c56 0 125 -5 152 -11z"/>
<path d="M6644 5121 l-80 -6 -3 -270 c-2 -244 -4 -273 -22 -307 -28 -54 -71
-78 -141 -78 -94 0 -144 30 -179 105 -17 36 -19 69 -19 298 l0 257 -86 0 -86
0 4 -287 c4 -319 9 -346 77 -432 63 -79 220 -126 343 -101 85 16 126 39 189
105 96 100 94 87 97 428 2 163 0 296 -5 295 -4 -1 -44 -4 -89 -7z"/>
<path d="M2556 5110 c0 -3 0 -188 2 -412 l3 -408 85 0 84 0 0 124 0 123 128 5
c154 6 211 26 274 97 85 96 97 180 43 299 -34 75 -64 104 -138 138 -55 25 -75
29 -182 31 -66 2 -160 4 -208 6 -49 1 -90 0 -91 -3z m438 -201 c59 -63 56
-137 -7 -183 -24 -18 -46 -21 -143 -25 l-114 -3 0 127 0 127 116 -4 116 -3 32
-36z"/>
<path d="M3344 5108 c-6 -10 -3 -529 4 -695 l5 -113 83 0 84 0 0 125 0 125 83
0 82 0 59 -103 c32 -56 65 -112 73 -124 12 -21 21 -23 104 -23 69 0 91 3 95
14 3 9 -34 67 -90 143 -53 70 -96 131 -96 136 0 4 7 7 15 7 25 0 116 91 136
135 66 143 -36 333 -194 364 -65 12 -437 20 -443 9z m443 -184 c61 -45 67
-112 15 -174 l-28 -33 -132 -5 -132 -5 0 122 0 123 124 -4 c108 -3 128 -6 153
-24z"/>
<path d="M4432 5101 c-85 -32 -136 -66 -196 -132 -87 -97 -101 -133 -101 -264
0 -104 2 -114 32 -176 40 -81 130 -169 210 -207 52 -24 69 -27 163 -26 121 1
168 15 242 72 66 49 164 196 174 259 12 84 -2 171 -45 259 -48 100 -101 156
-189 197 -88 41 -208 48 -290 18z m206 -163 c177 -53 192 -371 22 -458 -55
-28 -164 -28 -225 1 -107 51 -166 182 -136 307 31 126 188 196 339 150z"/>
<path d="M7180 5104 c-149 -40 -271 -180 -286 -331 -15 -138 34 -270 135 -366
70 -67 119 -92 215 -107 88 -14 159 -1 252 46 89 44 143 96 124 119 -7 8 -18
15 -25 15 -6 0 -31 13 -55 29 l-42 28 -25 -23 c-45 -42 -160 -57 -246 -33 -89
24 -157 129 -164 252 -4 66 -2 76 27 125 37 63 88 91 179 99 65 6 166 -23 219
-63 31 -25 52 -25 52 -1 0 7 18 34 40 61 22 26 40 50 40 52 0 11 -147 88 -192
100 -67 18 -177 17 -248 -2z"/>
<path d="M7720 5030 l0 -85 125 1 125 1 1 -303 c1 -167 2 -310 3 -316 1 -9 16
-12 46 -10 25 2 65 -1 88 -7 l43 -9 -3 324 -3 324 119 0 118 0 -4 74 c-2 41
-5 77 -8 79 -3 3 -150 7 -328 9 l-322 3 0 -85z"/>
<path d="M8400 4529 c-55 -22 -70 -47 -70 -120 0 -95 22 -113 130 -107 49 3
57 6 77 37 32 48 38 92 18 134 -26 56 -94 80 -155 56z"/>
<path d="M4715 3790 c-75 -16 -135 -85 -135 -155 0 -75 78 -155 153 -155 38 0
110 43 134 79 44 65 23 179 -39 212 -34 18 -80 26 -113 19z m83 -96 c32 -37
30 -96 -4 -123 -40 -31 -87 -28 -118 10 -30 35 -33 75 -8 105 40 50 89 53 130
8z"/>
<path d="M5826 3788 c-11 -35 -15 -139 -7 -187 7 -44 16 -61 45 -88 29 -27 44
-33 81 -33 38 0 52 6 83 34 l37 34 3 121 4 121 -30 0 -30 0 -4 -104 c-2 -67
-8 -109 -17 -120 -16 -19 -76 -22 -88 -3 -4 6 -10 62 -13 122 l-5 110 -28 3
c-16 2 -29 -2 -31 -10z"/>
<path d="M4293 3783 l-33 -4 0 -145 0 -144 90 0 c78 0 93 3 111 21 22 22 21
46 -2 40 -8 -2 -42 -6 -76 -8 -57 -5 -63 -4 -63 13 0 28 10 38 62 63 52 25 98
72 98 101 0 28 -36 57 -78 64 -38 6 -53 6 -109 -1z m117 -78 c6 -8 10 -22 8
-32 -3 -16 -62 -63 -79 -63 -5 0 -9 25 -9 55 l0 55 34 0 c18 0 39 -7 46 -15z"/>
<path d="M5027 3671 c-9 -155 -4 -181 34 -181 l28 0 3 86 3 86 35 -68 c19 -37
40 -69 47 -71 6 -2 27 29 47 69 l36 73 0 -93 0 -93 33 3 32 3 0 150 0 150 -35
3 c-35 3 -35 2 -69 -78 -18 -44 -36 -80 -40 -80 -4 0 -24 36 -44 80 -34 77
-37 80 -70 80 l-34 0 -6 -119z"/>
<path d="M5470 3641 c0 -127 2 -150 16 -155 37 -14 44 -7 44 44 l0 50 51 0
c43 0 55 5 80 29 23 24 29 38 29 74 0 25 -3 53 -6 62 -12 29 -60 45 -139 45
l-75 0 0 -149z m132 62 c10 -9 18 -22 18 -29 0 -17 -32 -34 -64 -34 -24 0 -26
4 -26 40 0 37 2 40 27 40 14 0 35 -7 45 -17z"/>
<path d="M6222 3638 l3 -153 28 -3 c27 -3 27 -3 27 53 0 54 1 56 23 50 12 -4
31 -18 42 -33 42 -55 64 -72 95 -72 16 0 30 3 30 6 0 4 -13 22 -30 41 -16 18
-30 38 -30 43 0 4 14 22 30 38 42 42 42 98 1 144 -29 32 -31 33 -125 36 l-97
4 3 -154z m152 69 c11 -8 17 -23 14 -38 -3 -21 -8 -24 -46 -23 -51 1 -67 14
-58 48 5 21 12 26 39 26 18 0 41 -6 51 -13z"/>
<path d="M6598 3635 l3 -155 109 0 110 0 0 30 0 29 -77 3 c-77 3 -78 3 -81 31
-3 27 -3 27 57 27 63 0 70 6 55 44 -5 12 -20 16 -60 16 -53 0 -54 1 -54 29 0
28 1 29 78 37 74 9 77 10 80 37 l3 27 -113 0 -113 0 3 -155z"/>
<path d="M3325 3661 c-54 -9 -63 -57 -12 -65 17 -3 188 -7 380 -9 l347 -2 0
36 0 37 -113 7 c-107 6 -561 4 -602 -4z"/>
<path d="M7070 3654 c0 -10 3 -29 6 -40 5 -21 12 -22 252 -28 136 -3 274 -2
307 2 59 7 60 8 63 40 l3 32 -173 0 c-95 0 -237 3 -315 7 -136 6 -143 5 -143
-13z"/>
</g>
</svg>
